<svg xmlns="http://www.w3.org/2000/svg" viewBox="0 0 30.46 78.43"><defs><style>.cls-1{fill:#89614d;}.cls-2{fill:#714e3a;}.cls-3{fill:#a88373;}.cls-4,.cls-9{fill:#374c7f;}.cls-5{fill:#0e1838;}.cls-6{fill:#090f28;}.cls-7{fill:#fffefd;}.cls-8{fill:#d3cfcd;}.cls-9{opacity:0.36;}</style></defs><title>Recurso 4</title><g id="Capa_2" data-name="Capa 2"><g id="Capa_4" data-name="Capa 4"><path class="cls-1" d="M23.16,75.93c0,1.38-3.58,2.5-8,2.5s-8-1.12-8-2.5a1,1,0,0,1,.16-.5c.75,1.14,4,2,7.84,2s7.09-.86,7.84-2A1,1,0,0,1,23.16,75.93Z"/><path class="cls-2" d="M23,75.43c-.75,1.14-4,2-7.84,2s-7.09-.86-7.84-2c.68-1,3.43-1.85,6.84-2V30.8h2V73.45C19.57,73.58,22.32,74.39,23,75.43Z"/><path class="cls-3" d="M25.17,13.3H15.58L15,15.41l-.36-2.11H4.88S1.94,9.61,8.24,8.7c1.56-.22,1.94-3,2.73-3.52a3.75,3.75,0,0,0,1.88-3.87h5.06a3.56,3.56,0,0,0,1.57,3.88c.8.53.79,3.45,2.43,3.69C28.2,9.79,25.17,13.3,25.17,13.3Z"/><polygon class="cls-4" points="9.48 11.22 20.99 10.72 20.62 38.5 9.48 38.74 9.48 11.22"/><polygon class="cls-5" points="15.38 46.66 12.83 74.16 6.85 74.16 7.5 37.52 23.43 37.52 24.18 74.16 18.15 74.16 15.38 46.66"/><path class="cls-6" d="M11,5.19S4.57,8.56,2.45,9.48L0,36.6l4.67.54L7.23,12s-2.08,24.87-1,29.44l5.49,3.91q.19-6,.22-12.28C12,23.32,11.61,14,11,5.19Z"/><path class="cls-6" d="M19.48,5.19S25.9,8.56,28,9.48L30.46,36.6l-4.67.54L23.23,12s2.08,24.87,1,29.44l-5.49,3.91c-.13-4-.21-8.1-.21-12.28C18.49,23.32,18.85,14,19.48,5.19Z"/><polygon class="cls-7" points="10.98 5.19 15.12 8.07 19.48 5.19 18.98 13.55 15.23 17.81 11.48 13.33 10.98 5.19"/><path class="cls-8" d="M7.71,36.34a11.66,11.66,0,0,0,3,0A3.6,3.6,0,0,1,7.71,36.34Z"/><circle class="cls-8" cx="26.78" cy="34.6" r="0.42"/><circle class="cls-8" cx="26.86" cy="35.75" r="0.42"/><path class="cls-8" d="M19.52,36.34a3.6,3.6,0,0,0,2.95,0,11.66,11.66,0,0,1-2.95,0"/><path class="cls-9" d="M11,74.16c0-.44-1-19.77-1-19.77L9,74.16"/><path class="cls-9" d="M22.17,74.16c0-.44-1-19.77-1-19.77l-1,19.77"/><ellipse class="cls-1" cx="15.37" cy="1.35" rx="2.52" ry="1.35"/></g></g></svg>