<svg xmlns="http://www.w3.org/2000/svg" viewBox="0 0 41.23 75.11"><defs><style>.cls-1{fill:#89614d;}.cls-2{fill:#714e3a;}.cls-3{fill:#a88373;}.cls-4{fill:#f9f9f9;}.cls-5{fill:#bcbcbc;}</style></defs><title>Recurso 3</title><g id="Capa_2" data-name="Capa 2"><g id="Capa_4" data-name="Capa 4"><path class="cls-1" d="M28.62,72.61c0,1.38-3.58,2.5-8,2.5s-8-1.12-8-2.5a1,1,0,0,1,.16-.5c.75,1.14,4,2,7.84,2s7.09-.86,7.84-2A1,1,0,0,1,28.62,72.61Z"/><path class="cls-2" d="M28.46,72.11c-.75,1.14-4,2-7.84,2s-7.09-.86-7.84-2c.68-1,3.43-1.85,6.84-2V55.75h2V70.13C25,70.26,27.78,71.07,28.46,72.11Z"/><path class="cls-3" d="M30.75,13.34H21.17l-.55,2.1-.36-2.1h-9.8s-3.67-6.06,2.63-7,5.34-5,5.34-5h5.06s-1,4.11,5.34,5S30.75,13.34,30.75,13.34Z"/><path class="cls-4" d="M40.88,63.72c-.64.55-1.68-.12-1.89-.93a1.41,1.41,0,0,1-1.29,1.42,1.39,1.39,0,0,1-1.41-1.29,1.26,1.26,0,1,1-2.51.07,1.24,1.24,0,0,1-2.47,0A1.29,1.29,0,0,1,30,64.27c-.24,0-.63-.18-1.19-1.37a1.27,1.27,0,0,1-.92,1.43,1.28,1.28,0,0,1-1.2-1.43,1.35,1.35,0,0,1-1,1.35,1.38,1.38,0,0,1-1.44-1.45,2.17,2.17,0,0,1-2,1.51,1.88,1.88,0,0,1-1-.42,2,2,0,0,1-.66-1.16A2,2,0,0,1,20,63.89a1.88,1.88,0,0,1-1,.42,2.17,2.17,0,0,1-2-1.51,1.38,1.38,0,0,1-1.44,1.45,1.35,1.35,0,0,1-1-1.35,1.28,1.28,0,0,1-1.2,1.43,1.27,1.27,0,0,1-.92-1.43c-.56,1.19-1,1.36-1.19,1.37A1.3,1.3,0,0,1,9.93,63a1.28,1.28,0,0,1-1.25,1.18,1.29,1.29,0,0,1-1.22-1.25A1.31,1.31,0,0,1,6.2,64.26,1.32,1.32,0,0,1,5,62.92a1.39,1.39,0,0,1-1.41,1.29,1.41,1.41,0,0,1-1.29-1.42C2,63.6,1,64.27.37,63.72A1.28,1.28,0,0,1,0,62.6c0-.22.06-.43.1-.64C1.53,55.35,3,48.74,4.46,42.14c1-4.17,2.08-8.56,5.08-11.61a30.84,30.84,0,0,0,3.4-3.36,7.32,7.32,0,0,0,1.17-5.61,8.68,8.68,0,0,0-3-4.95,1.71,1.71,0,0,1-.67-.84c-.11-.54.37-1,.35-1.59a2.18,2.18,0,0,0-.48-1,1.24,1.24,0,0,1-.24-1.07c.14-.35.76-.45.87-.08-.12-.4-.55-1-.13-1.41a1.1,1.1,0,0,1,1.35.13.73.73,0,0,1,.18-1,.74.74,0,0,1,.89.14.61.61,0,0,1,.61-.66,1.88,1.88,0,0,1,1.06.69,6.47,6.47,0,0,0,4.51,1.9c.39,0,.86,1.3,1.07,1.63a8,8,0,0,1,.13,1.78,8,8,0,0,1,.13-1.78c.21-.33.68-1.62,1.07-1.63a6.47,6.47,0,0,0,4.51-1.9,1.88,1.88,0,0,1,1.06-.69.61.61,0,0,1,.61.66.74.74,0,0,1,.89-.14.73.73,0,0,1,.18,1,1.1,1.1,0,0,1,1.35-.13c.42.37,0,1-.13,1.41.11-.37.73-.27.87.08a1.21,1.21,0,0,1-.24,1.07,2.18,2.18,0,0,0-.48,1c0,.55.46,1.05.35,1.59a1.71,1.71,0,0,1-.67.84,8.68,8.68,0,0,0-3,4.95,7.32,7.32,0,0,0,1.17,5.61,30.84,30.84,0,0,0,3.4,3.36c3,3,4.12,7.44,5.08,11.61,1.52,6.6,2.93,13.21,4.35,19.82,0,.21.08.42.1.64A1.3,1.3,0,0,1,40.88,63.72Z"/><path class="cls-5" d="M13.86,30.38S12.41,48,4.53,58C4.53,58,15.87,43.56,13.86,30.38Z"/><path class="cls-5" d="M17.22,34.85S14.64,54.12,9.06,60.77C9.06,60.77,17.77,49.6,17.22,34.85Z"/><path class="cls-5" d="M26.8,30.38S28.25,48,36.13,58C36.13,58,24.78,43.56,26.8,30.38Z"/><path class="cls-5" d="M23.44,34.85S26,54.12,31.6,60.77C31.6,60.77,22.88,49.6,23.44,34.85Z"/><ellipse class="cls-1" cx="20.97" cy="1.35" rx="2.55" ry="1.35"/></g></g></svg>