<svg xmlns="http://www.w3.org/2000/svg" viewBox="0 0 49.15 75.96"><defs><style>.cls-1{fill:none;stroke:#000;stroke-miterlimit:10;stroke-width:0.25px;}</style></defs><title>Recurso 1</title><g id="Capa_2" data-name="Capa 2"><g id="Capa_3" data-name="Capa 3"><path class="cls-1" d="M48.91,24a4.51,4.51,0,0,0-.68-1.16A4.69,4.69,0,0,0,46.5,21.5a1.52,1.52,0,0,1-.82-.87c-.55-1.57-1.17-2-1.66-2.11-.85-.16-1.47.68-3.15,1.6a13.17,13.17,0,0,1-3,1.2,1.49,1.49,0,0,1-.36.05l-8.3,0a1.51,1.51,0,0,1-1.51-1.51v-8a1.23,1.23,0,0,1,0-.27A8.67,8.67,0,0,1,28.6,9c1-1.77,2.13-2.34,2-3.48a2.66,2.66,0,0,0-1.06-1.6,3.07,3.07,0,0,0-1.88-.66,3.27,3.27,0,0,0-.69-2l-.12-.14A3.24,3.24,0,0,0,24.59.13a3.28,3.28,0,0,0-2.29.94.76.76,0,0,0-.11.14,3.2,3.2,0,0,0-.69,2,3.08,3.08,0,0,0-1.89.66,2.66,2.66,0,0,0-1.06,1.6c-.13,1.14,1,1.71,2,3.48a8.67,8.67,0,0,1,.93,2.66,1.24,1.24,0,0,1,0,.27v8A1.52,1.52,0,0,1,20,21.4l-8.3,0a1.49,1.49,0,0,1-.36-.05,13,13,0,0,1-3-1.2C6.59,19.2,6,18.36,5.12,18.52c-.48.1-1.11.54-1.66,2.11a1.49,1.49,0,0,1-.82.87A4.69,4.69,0,0,0,.91,22.84,4.82,4.82,0,0,0,.23,24a1.6,1.6,0,0,0,0,1.08,5.43,5.43,0,0,0,1.39,2.19,5.09,5.09,0,0,0,1.49,1,1.5,1.5,0,0,1,.77.87c.49,1.44,1.08,1.89,1.57,2,.9.23,1.63-.62,3.89-1.68a20.43,20.43,0,0,1,2.26-.9,1.43,1.43,0,0,1,.46-.07h8.25A1.52,1.52,0,0,1,21.79,30v34.1a1.72,1.72,0,0,1-.1.55c-.1.26-.24.59-.42,1C20,68.32,18.51,69,18.55,70.09c0,.55.42,1.33,2.23,2.23a1.42,1.42,0,0,1,.8,1,3.12,3.12,0,0,0,1,1.69l0,0a2.89,2.89,0,0,0,2.16.83A2.8,2.8,0,0,0,26.53,75l0,0a3.12,3.12,0,0,0,1-1.69,1.47,1.47,0,0,1,.8-1c1.81-.9,2.2-1.68,2.23-2.23,0-1.12-1.43-1.77-2.72-4.45a9.1,9.1,0,0,1-.41-1,1.5,1.5,0,0,1-.11-.55V30a1.52,1.52,0,0,1,1.51-1.51h8.25a1.43,1.43,0,0,1,.46.07,20.43,20.43,0,0,1,2.26.9c2.26,1.06,3,1.91,3.89,1.68.49-.12,1.08-.57,1.58-2a1.47,1.47,0,0,1,.77-.87,5.19,5.19,0,0,0,1.48-1,5.43,5.43,0,0,0,1.39-2.19A1.55,1.55,0,0,0,48.91,24Z"/><path d="M24.57,73.47A3.68,3.68,0,0,1,23,72a3.74,3.74,0,0,1-.49-1.77H20.6L23.39,65V26.32h-12a2.44,2.44,0,0,0-.92.19L4.64,29V27.17a3.12,3.12,0,0,1-.9-.21,3.85,3.85,0,0,1-2-1.8,4.86,4.86,0,0,1,2.35-2,4.93,4.93,0,0,1,1.06-.26v-2l5,2.73a2.38,2.38,0,0,0,1.14.29H23.31V11.29L20.68,5.87h1.7a3.88,3.88,0,0,1,.92-2.45,3.9,3.9,0,0,1,1.28-.94,3.27,3.27,0,0,1,1.19.72,3.6,3.6,0,0,1,1,2.67h1.71l-2.63,5.42V23.92H37.76a2.5,2.5,0,0,0,1.17-.29l5-2.73v2a4.49,4.49,0,0,1,3,1.61,3.14,3.14,0,0,1,.39.64,3.76,3.76,0,0,1-.57.78,4.36,4.36,0,0,1-2.3,1.23V29l-5.81-2.44a2.6,2.6,0,0,0-.95-.19h-12V65l2.79,5.26H26.61a4,4,0,0,1-2,3.24Z"/></g></g></svg>