<svg xmlns="http://www.w3.org/2000/svg" viewBox="0 0 76.27 78.43"><defs><style>.cls-1{fill:#89614d;}.cls-2{fill:#714e3a;}.cls-3{fill:#a88373;}.cls-4{fill:#f9f9f9;}.cls-5{fill:#bcbcbc;}.cls-6{fill:#d3cfcd;}.cls-11,.cls-7{fill:#374c7f;}.cls-8{fill:#0e1838;}.cls-9{fill:#090f28;}.cls-10{fill:#fffefd;}.cls-11{opacity:0.36;}</style></defs><title>Recurso 2</title><g id="Capa_2" data-name="Capa 2"><g id="Capa_4" data-name="Capa 4"><path class="cls-1" d="M28.62,75.93c0,1.38-3.58,2.5-8,2.5s-8-1.12-8-2.5a1,1,0,0,1,.16-.5c.75,1.14,4,2,7.84,2s7.09-.86,7.84-2A1,1,0,0,1,28.62,75.93Z"/><path class="cls-2" d="M28.46,75.43c-.75,1.14-4,2-7.84,2s-7.09-.86-7.84-2c.68-1,3.43-1.85,6.84-2V59.08h2V73.45C25,73.58,27.78,74.39,28.46,75.43Z"/><path class="cls-3" d="M30.75,16.66H21.17l-.55,2.11-.36-2.11h-9.8s-3.67-6.06,2.63-7,5.34-5,5.34-5h5.06s-1,4.11,5.34,5S30.75,16.66,30.75,16.66Z"/><path class="cls-4" d="M40.88,67c-.64.55-1.68-.12-1.89-.93a1.41,1.41,0,0,1-1.29,1.42,1.39,1.39,0,0,1-1.41-1.29,1.26,1.26,0,1,1-2.51.07,1.24,1.24,0,0,1-2.47,0A1.29,1.29,0,0,1,30,67.59c-.24,0-.63-.18-1.19-1.37a1.27,1.27,0,0,1-.92,1.43,1.28,1.28,0,0,1-1.2-1.43,1.35,1.35,0,0,1-1,1.35,1.38,1.38,0,0,1-1.44-1.45,2.17,2.17,0,0,1-2,1.51,1.88,1.88,0,0,1-1-.42,2,2,0,0,1-.66-1.16A2,2,0,0,1,20,67.21a1.88,1.88,0,0,1-1,.42,2.17,2.17,0,0,1-2-1.51,1.38,1.38,0,0,1-1.44,1.45,1.35,1.35,0,0,1-1-1.35,1.28,1.28,0,0,1-1.2,1.43,1.27,1.27,0,0,1-.92-1.43c-.56,1.19-1,1.36-1.19,1.37a1.3,1.3,0,0,1-1.28-1.26,1.28,1.28,0,0,1-1.25,1.18,1.29,1.29,0,0,1-1.22-1.25A1.31,1.31,0,0,1,6.2,67.58,1.32,1.32,0,0,1,5,66.24a1.39,1.39,0,0,1-1.41,1.29,1.41,1.41,0,0,1-1.29-1.42C2,66.92,1,67.59.37,67A1.28,1.28,0,0,1,0,65.92c0-.22.06-.43.1-.64C1.53,58.67,3,52.06,4.46,45.46c1-4.17,2.08-8.56,5.08-11.61a30.84,30.84,0,0,0,3.4-3.36,7.32,7.32,0,0,0,1.17-5.61,8.68,8.68,0,0,0-3-4.95,1.71,1.71,0,0,1-.67-.84c-.11-.54.37-1,.35-1.59a2.18,2.18,0,0,0-.48-1,1.24,1.24,0,0,1-.24-1.07c.14-.35.76-.45.87-.08-.12-.4-.55-1-.13-1.41a1.1,1.1,0,0,1,1.35.13.73.73,0,0,1,.18-1,.74.74,0,0,1,.89.14.61.61,0,0,1,.61-.66,1.88,1.88,0,0,1,1.06.69,6.47,6.47,0,0,0,4.51,1.9c.39,0,.86,1.31,1.07,1.64a7.94,7.94,0,0,1,.13,1.77,7.94,7.94,0,0,1,.13-1.77c.21-.33.68-1.63,1.07-1.64a6.47,6.47,0,0,0,4.51-1.9,1.88,1.88,0,0,1,1.06-.69.61.61,0,0,1,.61.66.74.74,0,0,1,.89-.14.73.73,0,0,1,.18,1,1.1,1.1,0,0,1,1.35-.13c.42.37,0,1-.13,1.41.11-.37.73-.27.87.08a1.21,1.21,0,0,1-.24,1.07,2.18,2.18,0,0,0-.48,1c0,.55.46,1.05.35,1.59a1.71,1.71,0,0,1-.67.84,8.68,8.68,0,0,0-3,4.95,7.32,7.32,0,0,0,1.17,5.61,30.84,30.84,0,0,0,3.4,3.36c3,3,4.12,7.44,5.08,11.61,1.52,6.6,2.93,13.21,4.35,19.82,0,.21.08.42.1.64A1.3,1.3,0,0,1,40.88,67Z"/><path class="cls-5" d="M13.86,33.7S12.41,51.36,4.53,61.36C4.53,61.36,15.87,46.88,13.86,33.7Z"/><path class="cls-5" d="M17.22,38.17S14.64,57.45,9.06,64.1C9.06,64.1,17.77,52.92,17.22,38.17Z"/><path class="cls-5" d="M26.8,33.7s1.45,17.66,9.33,27.66C36.13,61.36,24.78,46.88,26.8,33.7Z"/><path class="cls-5" d="M23.44,38.17S26,57.45,31.6,64.1C31.6,64.1,22.88,52.92,23.44,38.17Z"/><ellipse class="cls-1" cx="20.97" cy="4.67" rx="2.55" ry="1.35"/><circle class="cls-6" cx="49.21" cy="77.5" r="0.42"/><circle class="cls-6" cx="49.13" cy="77.5" r="0.42"/><path class="cls-1" d="M69,75.93c0,1.38-3.58,2.5-8,2.5s-8-1.12-8-2.5a1,1,0,0,1,.16-.5c.75,1.14,4,2,7.84,2s7.09-.86,7.84-2A1,1,0,0,1,69,75.93Z"/><path class="cls-2" d="M68.81,75.43c-.75,1.14-4,2-7.84,2s-7.09-.86-7.84-2c.68-1,3.43-1.85,6.84-2V30.8h2V73.45C65.38,73.58,68.13,74.39,68.81,75.43Z"/><path class="cls-3" d="M71,13.3H61.39l-.55,2.11-.36-2.11h-9.8s-2.93-3.69,3.37-4.6c1.56-.22,1.94-3,2.73-3.52a3.74,3.74,0,0,0,1.87-3.87h5.06a3.55,3.55,0,0,0,1.58,3.88c.8.53.79,3.45,2.42,3.69C74,9.79,71,13.3,71,13.3Z"/><polygon class="cls-7" points="55.29 11.22 66.8 10.72 66.42 38.5 55.29 38.74 55.29 11.22"/><polygon class="cls-8" points="61.19 46.66 58.63 74.16 52.65 74.16 53.3 37.52 69.23 37.52 69.99 74.16 63.96 74.16 61.19 46.66"/><path class="cls-9" d="M56.78,5.19s-6.41,3.37-8.53,4.29L45.81,36.6l4.67.54L53,12s-2.07,24.87-1,29.44l5.48,3.91q.21-6,.22-12.28C57.78,23.32,57.42,14,56.78,5.19Z"/><path class="cls-9" d="M65.29,5.19s6.41,3.37,8.53,4.29L76.27,36.6l-4.68.54L69,12s2.08,24.87,1,29.44l-5.49,3.91q-.21-6-.22-12.28C64.3,23.32,64.66,14,65.29,5.19Z"/><polygon class="cls-10" points="56.78 5.19 60.92 8.07 65.29 5.19 64.78 13.55 61.04 17.81 57.28 13.33 56.78 5.19"/><path class="cls-6" d="M53.52,36.34a11.64,11.64,0,0,0,2.95,0A3.6,3.6,0,0,1,53.52,36.34Z"/><circle class="cls-6" cx="72.58" cy="34.6" r="0.42"/><circle class="cls-6" cx="72.67" cy="35.75" r="0.42"/><path class="cls-6" d="M65.32,36.34a3.6,3.6,0,0,0,3,0,11.64,11.64,0,0,1-3,0"/><path class="cls-11" d="M56.85,74.16c0-.44-1-19.77-1-19.77l-1,19.77"/><path class="cls-11" d="M68,74.16c0-.44-1-19.77-1-19.77L66,74.16"/><ellipse class="cls-1" cx="61.18" cy="1.35" rx="2.52" ry="1.35"/></g></g></svg>